<svg width="32" height="32" viewBox="0 0 32 32" fill="none" xmlns="http://www.w3.org/2000/svg">
<path fill-rule="evenodd" clip-rule="evenodd" d="M5 10C7.76142 10 10 7.76142 10 5C10 2.23858 7.76142 0 5 0C2.23858 0 0 2.23858 0 5C0 7.76142 2.23858 10 5 10ZM10 35C10 37.7614 7.76142 40 5 40C2.23858 40 0 37.7614 0 35V17.5C0 15.7097 0.957229 14.056 2.5097 13.1643C4.06216 12.2726 5.97291 12.279 7.51935 13.1811L30 26.2948V5C30 2.23857 32.2386 0 35 0C37.7614 0 40 2.23857 40 5V35C40 36.7903 39.0428 38.444 37.4903 39.3357C35.9378 40.2274 34.0271 40.221 32.4806 39.3189L10 26.2052V35Z" fill="url(#paint0_linear_4762_3740)"/>
<defs>
<linearGradient id="paint0_linear_4762_3740" x1="20" y1="0" x2="20" y2="40" gradientUnits="userSpaceOnUse">
<stop stop-color="#0084DB"/>
<stop offset="1" stop-color="#3FCCFF"/>
</linearGradient>
</defs>
</svg>
